<?xml version="1.0" standalone="no"?><!DOCTYPE svg PUBLIC "-//W3C//DTD SVG 1.1//EN" "http://www.w3.org/Graphics/SVG/1.1/DTD/svg11.dtd"><svg t="1527698146303" class="icon" style="" viewBox="0 0 1024 1024" version="1.1" xmlns="http://www.w3.org/2000/svg" p-id="4588" xmlns:xlink="http://www.w3.org/1999/xlink" width="200" height="200"><defs><style type="text/css"></style></defs><path d="M64 96h896v928H64z" fill="#EAEAEA" p-id="4589"></path><path d="M224 704h192v320H224z" fill="#434854" p-id="4590"></path><path d="M608 640h192v224h-192zM608 160h192v224h-192zM224 160h192v224H224z" fill="#469FCC" p-id="4591"></path><path d="M608 640h192v32h-192zM608 160h192v32h-192zM224 160h192v32H224z" fill="" p-id="4592"></path><path d="M64 96h896v32H64z" fill="" p-id="4593"></path><path d="M1024 64a32 32 0 0 1-32 32H32a32 32 0 0 1-32-32V32a32 32 0 0 1 32-32h960a32 32 0 0 1 32 32v32zM1024 544a32 32 0 0 1-32 32H32a32 32 0 0 1-32-32v-32a32 32 0 0 1 32-32h960a32 32 0 0 1 32 32v32z" fill="#EF4D4D" p-id="4594"></path><path d="M238.24 1024A126.656 126.656 0 0 0 256 960a128 128 0 0 0-256 0c0 23.424 6.752 45.088 17.76 64h220.48zM896 832a127.744 127.744 0 0 0-116.224 75.04A94.848 94.848 0 0 0 736 896a96 96 0 0 0-96 96c0 11.296 2.304 21.952 5.888 32h360.384A126.944 126.944 0 0 0 1024 960a128 128 0 0 0-128-128z" fill="#3AAD73" p-id="4595"></path><path d="M779.776 907.04A94.848 94.848 0 0 0 736 896a96 96 0 0 0-96 96c0 11.296 2.304 21.952 5.888 32h139.872A126.656 126.656 0 0 1 768 960c0-18.944 4.384-36.768 11.776-52.96z" fill="" p-id="4596"></path><path d="M64 576h896v32H64z" fill="" p-id="4597"></path></svg>